<svg width="22" height="22" viewBox="0 0 22 22" fill="none" xmlns="http://www.w3.org/2000/svg">
<g clip-path="url(#clip0_27537_412)">
<path d="M19.7083 3.66666H2.29165C1.0285 3.66666 0 4.69516 0 5.95835V16.0417C0 17.3049 1.0285 18.3334 2.29165 18.3334H19.7083C20.9715 18.3334 22 17.3049 22 16.0417V5.95835C22 4.69516 20.9715 3.66666 19.7083 3.66666ZM21.0833 16.0417C21.0833 16.7998 20.4664 17.4167 19.7083 17.4167H2.29165C1.53355 17.4167 0.916652 16.7998 0.916652 16.0417V5.95835C0.916652 5.20025 1.53355 4.58335 2.29165 4.58335H19.7083C20.4664 4.58335 21.0833 5.20025 21.0833 5.95835V16.0417H21.0833Z" fill="#111111"/>
<path d="M21.5417 6.41666H0.458348C0.205348 6.41666 0 6.622 0 6.875V9.625C0 9.878 0.205348 10.0834 0.458348 10.0834H21.5417C21.7947 10.0834 22 9.878 22 9.625V6.875C22 6.622 21.7947 6.41666 21.5417 6.41666ZM21.0833 9.16666H0.916652V7.33331H21.0833V9.16666H21.0833Z" fill="#111111"/>
<path d="M8.70835 12.8333H3.20835C2.95535 12.8333 2.75 13.0387 2.75 13.2917C2.75 13.5447 2.95535 13.75 3.20835 13.75H8.70835C8.96135 13.75 9.1667 13.5446 9.1667 13.2916C9.1667 13.0386 8.96135 12.8333 8.70835 12.8333Z" fill="#111111"/>
<path d="M8.70835 14.6667H3.20835C2.95535 14.6667 2.75 14.872 2.75 15.125C2.75 15.378 2.95535 15.5834 3.20835 15.5834H8.70835C8.96135 15.5834 9.1667 15.378 9.1667 15.125C9.16665 14.872 8.96135 14.6667 8.70835 14.6667Z" fill="#111111"/>
<path d="M17.8747 11.9167H16.958C16.1999 11.9167 15.583 12.5336 15.583 13.2917V14.2083C15.583 14.9664 16.1999 15.5833 16.958 15.5833H17.8747C18.6328 15.5833 19.2497 14.9664 19.2497 14.2083V13.2917C19.2497 12.5336 18.6328 11.9167 17.8747 11.9167ZM18.333 14.2084C18.333 14.4614 18.1277 14.6667 17.8747 14.6667H16.958C16.705 14.6667 16.4997 14.4614 16.4997 14.2084V13.2917C16.4997 13.0387 16.705 12.8334 16.958 12.8334H17.8747C18.1277 12.8334 18.333 13.0387 18.333 13.2917V14.2084Z" fill="#111111"/>
</g>
<defs>
<clipPath id="clip0_27537_412">
<rect width="22" height="22" fill="white"/>
</clipPath>
</defs>
</svg>
