<svg width="18" height="18" viewBox="0 0 18 18" fill="none" xmlns="http://www.w3.org/2000/svg">
<path d="M17.1816 9.07549V6.54563C17.1816 5.68778 16.5162 4.99012 15.6755 4.92247L13.326 0.818843C13.1083 0.439316 12.7568 0.168054 12.3361 0.0554156C11.9174 -0.0564561 11.4796 0.00229861 11.1048 0.220404L3.05087 4.90928H1.63635C0.733897 4.90928 0 5.64313 0 6.54563V16.3636C0 17.2661 0.733859 18 1.63635 18H15.5452C16.4477 18 17.1816 17.2661 17.1816 16.3636V13.8338C17.6567 13.6643 17.9997 13.2145 17.9997 12.6819V10.2274C17.9997 9.69476 17.6567 9.24493 17.1816 9.07549ZM14.7248 4.90928H11.1592L13.8334 3.35235L14.7248 4.90928ZM13.4269 2.64235L9.53311 4.90928H7.918L13.0231 1.93702L13.4269 2.64235ZM11.5167 0.927494C11.7017 0.819227 11.9178 0.790463 12.1243 0.845613C12.3333 0.90153 12.5075 1.03657 12.6157 1.22552L12.6166 1.22702L6.29201 4.90928H4.67698L11.5167 0.927494ZM16.3634 16.3636C16.3634 16.8147 15.9962 17.1818 15.5452 17.1818H1.63635C1.18533 17.1818 0.818194 16.8147 0.818194 16.3636V6.54563C0.818194 6.09461 1.18533 5.72747 1.63635 5.72747H15.5452C15.9962 5.72747 16.3634 6.09461 16.3634 6.54563V9.00013H13.9089C12.5554 9.00013 11.4544 10.1011 11.4544 11.4546C11.4544 12.8081 12.5554 13.9091 13.9089 13.9091H16.3634V16.3636V16.3636ZM17.1816 12.6819C17.1816 12.9076 16.9982 13.091 16.7725 13.091H13.9089C13.0064 13.091 12.2725 12.3571 12.2725 11.4546C12.2725 10.5522 13.0064 9.81829 13.9089 9.81829H16.7725C16.9982 9.81829 17.1816 10.0016 17.1816 10.2274V12.6819V12.6819Z" fill="white"/>
</svg>
